<svg width="20" height="20" viewBox="0 0 20 20" fill="none" xmlns="http://www.w3.org/2000/svg">
<g opacity="0.3">
<path fill-rule="evenodd" clip-rule="evenodd" d="M8.75 3.12501C8.01131 3.12501 7.27986 3.2705 6.5974 3.55319C5.91495 3.83587 5.29485 4.2502 4.77252 4.77253C4.25019 5.29486 3.83586 5.91496 3.55318 6.59741C3.27049 7.27987 3.125 8.01132 3.125 8.75001C3.125 9.48869 3.27049 10.2201 3.55318 10.9026C3.83586 11.5851 4.25019 12.2052 4.77252 12.7275C5.29485 13.2498 5.91495 13.6641 6.5974 13.9468C7.27986 14.2295 8.01131 14.375 8.75 14.375C10.2418 14.375 11.6726 13.7824 12.7275 12.7275C13.7824 11.6726 14.375 10.2419 14.375 8.75001C14.375 7.25817 13.7824 5.82743 12.7275 4.77253C11.6726 3.71764 10.2418 3.12501 8.75 3.12501ZM1.875 8.75001C1.87515 7.64592 2.1412 6.55811 2.65066 5.57859C3.16012 4.59907 3.89799 3.75666 4.80186 3.12261C5.70574 2.48856 6.74902 2.08153 7.84347 1.93595C8.93791 1.79036 10.0513 1.91051 11.0895 2.28622C12.1277 2.66194 13.0601 3.28216 13.808 4.09444C14.5558 4.90672 15.0969 5.88715 15.3857 6.95281C15.6745 8.01846 15.7023 9.13799 15.4669 10.2167C15.2315 11.2954 14.7398 12.3015 14.0333 13.15L17.9417 17.0583C18.0031 17.1156 18.0523 17.1846 18.0865 17.2612C18.1206 17.3379 18.139 17.4207 18.1405 17.5046C18.142 17.5885 18.1265 17.6718 18.0951 17.7497C18.0637 17.8275 18.0169 17.8982 17.9575 17.9575C17.8982 18.0169 17.8275 18.0637 17.7497 18.0951C17.6718 18.1265 17.5885 18.142 17.5046 18.1405C17.4206 18.139 17.3379 18.1207 17.2612 18.0865C17.1845 18.0523 17.1155 18.0031 17.0583 17.9417L13.15 14.0333C12.146 14.8696 10.9245 15.4024 9.6286 15.5694C8.33268 15.7364 7.01602 15.5306 5.83284 14.9762C4.64967 14.4218 3.64899 13.5416 2.94803 12.439C2.24707 11.3363 1.87486 10.0566 1.875 8.75001Z" fill="black"/>
</g>
</svg>
